<mxfile host="app.diagrams.net" modified="2021-07-08T19:54:47.958Z" agent="5.0 (Macintosh; Intel Mac OS X 10_15_7) AppleWebKit/605.1.15 (KHTML, like Gecko) Version/14.1.1 Safari/605.1.15" etag="TDSr6DJoNl5w2nspOwDY" version="14.8.5" type="github">
  <diagram id="CJ9HoI8bJgrRpVnL2h9T" name="Page-1">
    <mxGraphModel dx="946" dy="645" grid="1" gridSize="10" guides="1" tooltips="1" connect="1" arrows="1" fold="1" page="1" pageScale="1" pageWidth="827" pageHeight="1169" math="0" shadow="0">
      <root>
        <mxCell id="0" />
        <mxCell id="1" parent="0" />
        <mxCell id="5kxr-kfje3KNwf2SCr0R-2" value="Instruments" style="rounded=0;whiteSpace=wrap;html=1;" parent="1" vertex="1">
          <mxGeometry x="240" y="400" width="120" height="40" as="geometry" />
        </mxCell>
        <mxCell id="5kxr-kfje3KNwf2SCr0R-3" value="Models" style="rounded=0;whiteSpace=wrap;html=1;" parent="1" vertex="1">
          <mxGeometry x="400" y="400" width="120" height="40" as="geometry" />
        </mxCell>
        <mxCell id="5kxr-kfje3KNwf2SCr0R-4" value="Container" style="rounded=0;whiteSpace=wrap;html=1;" parent="1" vertex="1">
          <mxGeometry x="80" y="320" width="120" height="40" as="geometry" />
        </mxCell>
        <mxCell id="5kxr-kfje3KNwf2SCr0R-13" style="edgeStyle=none;rounded=0;orthogonalLoop=1;jettySize=auto;html=1;exitX=1;exitY=0.5;exitDx=0;exitDy=0;" parent="1" edge="1">
          <mxGeometry relative="1" as="geometry">
            <mxPoint x="430" y="460" as="sourcePoint" />
            <mxPoint x="430" y="460" as="targetPoint" />
          </mxGeometry>
        </mxCell>
        <mxCell id="5kxr-kfje3KNwf2SCr0R-14" style="edgeStyle=none;rounded=0;orthogonalLoop=1;jettySize=auto;html=1;exitX=1;exitY=0;exitDx=0;exitDy=0;" parent="1" edge="1">
          <mxGeometry relative="1" as="geometry">
            <mxPoint x="430" y="440" as="sourcePoint" />
            <mxPoint x="430" y="440" as="targetPoint" />
          </mxGeometry>
        </mxCell>
        <mxCell id="5kxr-kfje3KNwf2SCr0R-15" style="edgeStyle=none;rounded=0;orthogonalLoop=1;jettySize=auto;html=1;exitX=0;exitY=0.5;exitDx=0;exitDy=0;" parent="1" edge="1">
          <mxGeometry relative="1" as="geometry">
            <mxPoint x="240" y="460" as="sourcePoint" />
            <mxPoint x="240" y="460" as="targetPoint" />
          </mxGeometry>
        </mxCell>
        <mxCell id="5kxr-kfje3KNwf2SCr0R-16" style="edgeStyle=none;rounded=0;orthogonalLoop=1;jettySize=auto;html=1;exitX=1;exitY=0.5;exitDx=0;exitDy=0;" parent="1" edge="1">
          <mxGeometry relative="1" as="geometry">
            <mxPoint x="430" y="460" as="sourcePoint" />
            <mxPoint x="430" y="460" as="targetPoint" />
          </mxGeometry>
        </mxCell>
        <mxCell id="5kxr-kfje3KNwf2SCr0R-17" style="edgeStyle=none;rounded=0;orthogonalLoop=1;jettySize=auto;html=1;exitX=1;exitY=0.5;exitDx=0;exitDy=0;" parent="1" edge="1">
          <mxGeometry relative="1" as="geometry">
            <mxPoint x="430" y="460" as="sourcePoint" />
            <mxPoint x="430" y="460" as="targetPoint" />
          </mxGeometry>
        </mxCell>
        <mxCell id="5kxr-kfje3KNwf2SCr0R-18" style="edgeStyle=none;rounded=0;orthogonalLoop=1;jettySize=auto;html=1;exitX=1;exitY=0.75;exitDx=0;exitDy=0;" parent="1" edge="1">
          <mxGeometry relative="1" as="geometry">
            <mxPoint x="430" y="470" as="sourcePoint" />
            <mxPoint x="430" y="470" as="targetPoint" />
          </mxGeometry>
        </mxCell>
        <mxCell id="wW3y7NWhIM2HwU2-JFic-20" value="" style="edgeStyle=orthogonalEdgeStyle;curved=1;rounded=0;orthogonalLoop=1;jettySize=auto;html=1;" edge="1" parent="1" source="wW3y7NWhIM2HwU2-JFic-1" target="5kxr-kfje3KNwf2SCr0R-4">
          <mxGeometry relative="1" as="geometry" />
        </mxCell>
        <mxCell id="wW3y7NWhIM2HwU2-JFic-1" value="Elaboration" style="rounded=0;whiteSpace=wrap;html=1;" vertex="1" parent="1">
          <mxGeometry x="80" y="240" width="120" height="40" as="geometry" />
        </mxCell>
        <mxCell id="wW3y7NWhIM2HwU2-JFic-21" value="" style="edgeStyle=orthogonalEdgeStyle;curved=1;rounded=0;orthogonalLoop=1;jettySize=auto;html=1;" edge="1" parent="1" source="wW3y7NWhIM2HwU2-JFic-2" target="wW3y7NWhIM2HwU2-JFic-3">
          <mxGeometry relative="1" as="geometry" />
        </mxCell>
        <mxCell id="wW3y7NWhIM2HwU2-JFic-23" style="edgeStyle=orthogonalEdgeStyle;curved=1;rounded=0;orthogonalLoop=1;jettySize=auto;html=1;entryX=1;entryY=0.5;entryDx=0;entryDy=0;exitX=0.5;exitY=1;exitDx=0;exitDy=0;" edge="1" parent="1" source="wW3y7NWhIM2HwU2-JFic-2" target="5kxr-kfje3KNwf2SCr0R-4">
          <mxGeometry relative="1" as="geometry" />
        </mxCell>
        <mxCell id="wW3y7NWhIM2HwU2-JFic-2" value="Metrics" style="rounded=0;whiteSpace=wrap;html=1;" vertex="1" parent="1">
          <mxGeometry x="400" y="240" width="120" height="40" as="geometry" />
        </mxCell>
        <mxCell id="wW3y7NWhIM2HwU2-JFic-13" style="edgeStyle=orthogonalEdgeStyle;curved=1;rounded=0;orthogonalLoop=1;jettySize=auto;html=1;" edge="1" parent="1" source="wW3y7NWhIM2HwU2-JFic-3" target="5kxr-kfje3KNwf2SCr0R-2">
          <mxGeometry relative="1" as="geometry" />
        </mxCell>
        <mxCell id="wW3y7NWhIM2HwU2-JFic-14" style="edgeStyle=orthogonalEdgeStyle;curved=1;rounded=0;orthogonalLoop=1;jettySize=auto;html=1;exitX=0.5;exitY=1;exitDx=0;exitDy=0;" edge="1" parent="1" source="wW3y7NWhIM2HwU2-JFic-3" target="5kxr-kfje3KNwf2SCr0R-3">
          <mxGeometry relative="1" as="geometry" />
        </mxCell>
        <mxCell id="wW3y7NWhIM2HwU2-JFic-22" style="edgeStyle=orthogonalEdgeStyle;curved=1;rounded=0;orthogonalLoop=1;jettySize=auto;html=1;entryX=1;entryY=0.5;entryDx=0;entryDy=0;exitX=0.5;exitY=1;exitDx=0;exitDy=0;" edge="1" parent="1" source="wW3y7NWhIM2HwU2-JFic-3" target="5kxr-kfje3KNwf2SCr0R-4">
          <mxGeometry relative="1" as="geometry" />
        </mxCell>
        <mxCell id="wW3y7NWhIM2HwU2-JFic-3" value="Pricers" style="rounded=0;whiteSpace=wrap;html=1;" vertex="1" parent="1">
          <mxGeometry x="240" y="240" width="120" height="40" as="geometry" />
        </mxCell>
        <mxCell id="wW3y7NWhIM2HwU2-JFic-6" style="edgeStyle=orthogonalEdgeStyle;rounded=0;orthogonalLoop=1;jettySize=auto;html=1;entryX=0.5;entryY=0;entryDx=0;entryDy=0;curved=1;exitX=0.5;exitY=1;exitDx=0;exitDy=0;" edge="1" parent="1" source="wW3y7NWhIM2HwU2-JFic-4" target="wW3y7NWhIM2HwU2-JFic-2">
          <mxGeometry relative="1" as="geometry" />
        </mxCell>
        <mxCell id="wW3y7NWhIM2HwU2-JFic-7" style="edgeStyle=orthogonalEdgeStyle;rounded=0;orthogonalLoop=1;jettySize=auto;html=1;entryX=0.5;entryY=0;entryDx=0;entryDy=0;curved=1;" edge="1" parent="1" source="wW3y7NWhIM2HwU2-JFic-4" target="wW3y7NWhIM2HwU2-JFic-3">
          <mxGeometry relative="1" as="geometry" />
        </mxCell>
        <mxCell id="wW3y7NWhIM2HwU2-JFic-9" style="edgeStyle=orthogonalEdgeStyle;rounded=0;orthogonalLoop=1;jettySize=auto;html=1;curved=1;exitX=0.5;exitY=1;exitDx=0;exitDy=0;" edge="1" parent="1" source="wW3y7NWhIM2HwU2-JFic-4" target="wW3y7NWhIM2HwU2-JFic-1">
          <mxGeometry relative="1" as="geometry" />
        </mxCell>
        <mxCell id="wW3y7NWhIM2HwU2-JFic-4" value="PricingEngine" style="rounded=0;whiteSpace=wrap;html=1;" vertex="1" parent="1">
          <mxGeometry x="240" y="160" width="120" height="40" as="geometry" />
        </mxCell>
        <mxCell id="wW3y7NWhIM2HwU2-JFic-5" value="Core" style="rounded=0;whiteSpace=wrap;html=1;" vertex="1" parent="1">
          <mxGeometry x="240" y="480" width="120" height="40" as="geometry" />
        </mxCell>
      </root>
    </mxGraphModel>
  </diagram>
</mxfile>
